# xmcd
#
# Track frame offsets:
#	150
#	15974
#	34281
#	50508
#	71175
#	92161
#	103540
#	118647
#	136548
#	157664
#
# Disc length: 2328 seconds
#
# Revision: 0
# Processed by: cddbd v1.4PL0 Copyright (c) Steve Scherf et al.
# Submitted via: dBpowerAMP V4.0
#
DISCID=7509160a
DTITLE=George Strait - One Step At A Time
DYEAR=1900
DGENRE=Country
TTITLE0=I Just Want To Dance With You
TTITLE1=One Step At A Time
TTITLE2=True
TTITLE3=Remember The Alamo
TTITLE4=Maria
TTITLE5=We Really Shouldn't Be Doing This
TTITLE6=Why Not Now
TTITLE7=That's The Breaks
TTITLE8=Neon Row
TTITLE9=You Haven't Left Me Yet
EXTD=
EXTT0=
EXTT1=
EXTT2=
EXTT3=
EXTT4=
EXTT5=
EXTT6=
EXTT7=
EXTT8=
EXTT9=
PLAYORDER=
